<svg xmlns="http://www.w3.org/2000/svg" viewBox="0 0 141.032 141.031">
  <title>Fichier 1</title>
  <g id="Calque_2" data-name="Calque 2">
    <g id="board">
      <g>
        <g>
          <path d="M87.818,109.7A14.77,14.77,0,0,1,77.8,95.666V79.252H64.257V95.69a14.772,14.772,0,0,1-9.994,14.023,35.373,35.373,0,0,0-21.473,20.365,70.456,70.456,0,0,0,76.324-.559A35.365,35.365,0,0,0,87.818,109.7Z" style="fill: #ddad73"/>
          <path d="M62.92,140.618,24.571,51.323a4.339,4.339,0,0,0-7.991,3.386l34.993,83.728A70.285,70.285,0,0,0,62.92,140.618Z" style="fill: #605c5f"/>
          <path d="M48.217,100.446a6.468,6.468,0,0,0-11.883,5.113l13.911,32.5A70.3,70.3,0,0,0,65.7,140.849Z" style="fill: #504d50"/>
          <path d="M27.884,69.063a6.576,6.576,0,0,1-9.1-3.386l-6.434-15.91a6.468,6.468,0,0,1,2.871-8.235h0a6.47,6.47,0,0,1,9.013,3.122l6.712,16.017a6.576,6.576,0,0,1-3.067,8.393Z" style="fill: #504d50"/>
          <g>
            <circle cx="50.915" cy="60.276" r="13.706" style="fill: #f4a168"/>
            <circle cx="91.63" cy="60.276" r="13.706" style="fill: #f4a168"/>
          </g>
          <path d="M54.263,109.713a35.1,35.1,0,0,0-10.133,5.412H64.616l6.495,6.5,6.338-6.5H98A35.022,35.022,0,0,0,87.818,109.7a14.754,14.754,0,0,1-9.972-12.916H64.215A14.756,14.756,0,0,1,54.263,109.713Z" style="fill: #f9b382"/>
          <path d="M77.8,95.666V79.252H64.257V92.617h0V95.69c0,.43-.022.855-.058,1.279a16.1,16.1,0,0,0,13.686.231A14.883,14.883,0,0,1,77.8,95.666Z" style="fill: #f4a168"/>
          <path d="M98.24,46.7C98,28.308,85.666,19.867,70.807,19.867c-15.008,0-27.184,8.61-27.184,27.394V64.287c0,16.768,15.109,30.485,27.155,30.485S98.24,81.054,98.24,64.287Z" style="fill: #f9b382"/>
          <path d="M95.153,53.365C94.942,35.933,84.08,26.4,70.995,26.4c-13.216,0-23.938,9.7-23.938,27.5v8.07c0,15.89,13.305,28.891,23.913,28.891s24.184-13,24.184-28.891Z" style="fill: #fac29c"/>
          <path d="M75.825,71.078c0,1.941-2.106,3.514-4.7,3.514s-4.706-1.573-4.706-3.514S68.521,60.65,71.12,60.65,75.825,69.137,75.825,71.078Z" style="fill: #f58771"/>
          <g>
            <path d="M94.154,60.843H80.413l3.681,6.767h3.294A6.767,6.767,0,0,0,94.154,60.843Z" style="fill: #ba835a"/>
            <path d="M84.6,54.166h.512A6.482,6.482,0,0,1,91.6,60.648v2.13a4.833,4.833,0,0,1-4.833,4.833H82.931a4.97,4.97,0,0,1-4.97-4.97V60.807A6.641,6.641,0,0,1,84.6,54.166Z" style="fill: #fff"/>
            <path d="M84.778,65.64h0a2.311,2.311,0,0,1-2.305-2.3V58.248a2.312,2.312,0,0,1,2.305-2.3h0a2.311,2.311,0,0,1,2.3,2.3v5.089A2.31,2.31,0,0,1,84.778,65.64Z" style="fill: #835932"/>
            <path d="M86.763,67.61" style="fill: #f9a870"/>
          </g>
          <g>
            <path d="M48,60.843H61.744l-3.68,6.767H54.769A6.767,6.767,0,0,1,48,60.843Z" style="fill: #ba835a"/>
            <path d="M55.53,54.166h3.833A4.832,4.832,0,0,1,64.195,59V61.13a6.48,6.48,0,0,1-6.48,6.48H57.2a6.642,6.642,0,0,1-6.642-6.642V59.135A4.969,4.969,0,0,1,55.53,54.166Z" transform="translate(114.756 121.776) rotate(180)" style="fill: #fff"/>
            <path d="M57.378,65.64h0a2.31,2.31,0,0,0,2.305-2.3V58.248a2.311,2.311,0,0,0-2.305-2.3h0a2.311,2.311,0,0,0-2.3,2.3v5.089A2.31,2.31,0,0,0,57.378,65.64Z" style="fill: #835932"/>
            <path d="M55.393,67.61" style="fill: #f9a870"/>
          </g>
          <path d="M65.965,79.757c0,1.909,2.289,3.457,5.113,3.457s5.113-1.547,5.113-3.457" style="fill: #c28155"/>
          <path d="M64.195,81.088c0-2.007,3.082-3.635,6.883-3.635s6.883,1.628,6.883,3.635" style="fill: #d79667"/>
          <circle cx="71.146" cy="70.182" r="2.561" style="fill: #f79e8e"/>
          <path d="M77.961,27.362H64.232V20.348A6.865,6.865,0,0,1,71.1,13.482h0a6.866,6.866,0,0,1,6.864,6.866Z" style="fill: #704c28"/>
          <path d="M70.807,19.867c-15.008,0-27.184,8.61-27.184,27.394V87.279a1.09,1.09,0,0,0,2.173.111L50.381,42.5a26.4,26.4,0,0,1,20.595-9.191A26.836,26.836,0,0,1,91.452,42.2l4.616,45.186a1.089,1.089,0,0,0,2.172-.111V46.7C98,28.308,85.666,19.867,70.807,19.867Z" style="fill: #835932"/>
          <path d="M70.995,26.4c-13.216,0-23.938,9.7-23.938,27.5v8.07a28.93,28.93,0,0,0,.7,6.259L50,46.248a10.487,10.487,0,0,1,3.789-7.086,26.9,26.9,0,0,1,17.188-5.851,27.347,27.347,0,0,1,16.936,5.576,10.424,10.424,0,0,1,3.936,7.2L94.21,69.2a28.529,28.529,0,0,0,.943-7.239v-8.6C94.942,35.933,84.08,26.4,70.995,26.4Z" style="fill: #926339"/>
          <path d="M55.393,67.61" style="fill: #f9a870"/>
          <path d="M86.119,108.993q-.568-.274-1.106-.593c-.045-.027-.094-.047-.139-.074h-.043L71.846,141c.1,0,.206,0,.308,0a70.152,70.152,0,0,0,36.961-11.481,35.365,35.365,0,0,0-21.3-19.822,14.688,14.688,0,0,1-1.38-.552C86.33,109.1,86.225,109.045,86.119,108.993Z" style="fill: #b99260"/>
          <path d="M32.791,130.078a70.152,70.152,0,0,0,37.23,10.944h.123L57.163,108.363c-.051.031-.108.055-.16.085q-.514.3-1.057.566c-.107.053-.214.1-.323.154a14.322,14.322,0,0,1-1.36.545A35.373,35.373,0,0,0,32.791,130.078Z" style="fill: #c99e69"/>
          <path d="M50.806,111.094a35.19,35.19,0,0,0-7.785,4.919l9.78,22.772a70.265,70.265,0,0,0,10.712,1.9Z" style="fill: #8b5d29"/>
          <path d="M45.959,122.856,52.8,138.785q1.675.433,3.382.785l5.557-3.015-7.746-18.034Z" style="fill: #735020"/>
          <path d="M18.789,65.677l-6.434-15.91a6.468,6.468,0,0,1,2.871-8.235h0a6.47,6.47,0,0,1,9.013,3.122l6.712,16.017" style="fill: #605c5f"/>
        </g>
      </g>
    </g>
  </g>
</svg>
