<svg xmlns="http://www.w3.org/2000/svg" viewBox="0 0 141.032 141.031">
  <title>Fichier 1</title>
  <g id="Calque_2" data-name="Calque 2">
    <g id="board">
      <g>
        <g>
          <path d="M44.995,30.856H96.066a9.527,9.527,0,0,1,9.527,9.527v30.3a9.527,9.527,0,0,1-9.527,9.527H44.995a9.528,9.528,0,0,1-9.528-9.528v-30.3A9.528,9.528,0,0,1,44.995,30.856Z" style="fill: #2f2d30"/>
          <path d="M70.516,141.031a70.331,70.331,0,0,0,52.135-23.037c-4.037-6.857-11.324-9.7-21.624-10.049-.456-.026-.915-.04-1.378-.04H40.37c-.287,0-.571.007-.854.017-.176.007-.351.013-.525.023-6.175.211-11.269,1.315-15.23,3.641a20.222,20.222,0,0,0-5.684,6.066A70.331,70.331,0,0,0,70.516,141.031Z" style="fill: #b99260"/>
          <path d="M87.318,107.9H49.157V137.73A70.61,70.61,0,0,0,95.906,136.3V107.9H87.318Z" style="fill: #d2bd92"/>
          <polygon points="56.044 50.569 56.044 108.618 70.174 122.647 84.998 107.823 84.998 49.775 56.044 50.569" style="fill: #f9b382"/>
          <path d="M70.174,122.647l6.764-6.763a18.634,18.634,0,0,0-4.1-.458H67.66a18.651,18.651,0,0,0-4.261.495Z" style="fill: #fac29c"/>
          <path d="M34.781,131.3a70.473,70.473,0,0,0,70.411.609v-10H34.781Z" style="fill: #e7cfa0"/>
          <g>
            <path d="M99.649,107.9H84.334v31.765a70.186,70.186,0,0,0,28.272-12.575v-17.2a38.146,38.146,0,0,0-11.579-1.948C100.571,107.919,100.112,107.9,99.649,107.9Z" style="fill: #b99260"/>
            <path d="M122.664,117.981c-4.067-6.674-11.308-9.438-21.479-9.788-.456-.024-.915-.039-1.378-.039H94.716v9.439l-.481.484h5.571c.252,0,.524.007.831.024l.207.01c6.18.212,11.908.939,14.276,7.015A70.991,70.991,0,0,0,122.664,117.981Z" style="fill: #d8b280"/>
            <path d="M94.287,128.88v7.429h1.6a70.323,70.323,0,0,0,14.207-7.429Z" style="fill: #8e4337"/>
            <path d="M52.675,107.9H40.37c-.287,0-.571.007-.854.017-.176.007-.351.013-.525.023a38.231,38.231,0,0,0-11.519,1.929v16.479a70.191,70.191,0,0,0,28.755,13.229V107.9H52.675Z" style="fill: #b99260"/>
            <path d="M45.532,108.154H40.526c-.286,0-.568.007-.853.017-.176.006-.352.013-.525.022-6.175.213-11.269,1.316-15.229,3.642a20.183,20.183,0,0,0-5.659,6.026,70.836,70.836,0,0,0,7.358,7.031,13.446,13.446,0,0,1,3.6-4.654c2.309-1.257,5.761-1.972,10.274-2.127l.21-.01c.112-.006.226-.01.335-.014.163-.006.328-.011.493-.011h5.492l-.486-.484Z" style="fill: #d8b280"/>
            <path d="M27.909,126.167v.528a70.381,70.381,0,0,0,17.236,9.613h8.392V115.471H38.6A10.7,10.7,0,0,0,27.909,126.167Z" style="fill: #8e4337"/>
          </g>
          <circle cx="91.613" cy="58.97" r="14.163" style="fill: #f4a168"/>
          <circle cx="49.54" cy="58.97" r="14.163" style="fill: #f4a168"/>
          <path d="M52.7,107.9" style="fill: #516b85"/>
          <path d="M84.365,100.116c-3.674,2.206-8.574,3.167-13.973,3.22.07,0,.139,0,.209,0h-.676c.071,0,.139,0,.21,0-5.328-.052-10.169-.99-13.826-3.134V89.448H84.365Z" style="fill: #f4a168"/>
          <path d="M42.27,125.13v10a69.883,69.883,0,0,0,13.958,4.452V93.928l-1.689,1.682A41.649,41.649,0,0,0,42.27,125.13Z" style="fill: #a88558"/>
          <path d="M84.334,93.928v45.741a69.973,69.973,0,0,0,13.957-4.327V125.133A41.657,41.657,0,0,0,86.023,95.609Z" style="fill: #a88558"/>
          <path d="M70.674,16.861c.095,0,.187-.007.28-.007h-.91c.095,0,.186.006.281.007C54.883,17.01,42.468,22.675,42.468,38.2V78.029c0,15.522,12.415,21.186,27.858,21.336-.1,0-.186.006-.281.006h.91c-.094,0-.185-.005-.28-.006,15.442-.15,27.858-5.814,27.858-21.336V38.2C98.531,22.675,86.116,17.01,70.674,16.861Z" style="fill: #f9b382"/>
          <path d="M70.642,22.756c-.081,0-.163-.006-.246-.006h.793c-.082,0-.163.005-.244.006,13.438.13,24.244,5.06,24.244,18.567V75.782c0,13.507-10.806,18.437-24.244,18.567.082,0,.162.006.244.006H70.4c.083,0,.165-.005.246-.006C57.2,94.22,46.4,89.29,46.4,75.782V41.323C46.4,27.816,57.2,22.886,70.642,22.756Z" style="fill: #fac29c"/>
          <path d="M62.563,78.792A1.041,1.041,0,0,0,63.6,79.834h14.13a1.041,1.041,0,0,0,1.042-1.042h0a1.041,1.041,0,0,0-1.042-1.041H63.6a1.041,1.041,0,0,0-1.041,1.041Z" style="fill: #d79667"/>
          <path d="M65.638,69.66c0,2.005,2.176,3.632,4.862,3.632s4.863-1.626,4.863-3.632S73.185,58.885,70.5,58.885,65.638,67.655,65.638,69.66Z" style="fill: #f58771"/>
          <path d="M54.476,52.185h3.96a4.994,4.994,0,0,1,4.994,4.994v2.2a6.7,6.7,0,0,1-6.7,6.7H56.2a6.863,6.863,0,0,1-6.863-6.863V57.32A5.135,5.135,0,0,1,54.476,52.185Z" transform="translate(112.771 118.262) rotate(180)" style="fill: #fff"/>
          <path d="M56.385,64.042h0a2.388,2.388,0,0,0,2.381-2.381V56.4a2.389,2.389,0,0,0-2.381-2.381h0A2.389,2.389,0,0,0,54,56.4v5.259A2.389,2.389,0,0,0,56.385,64.042Z" style="fill: #614319"/>
          <circle cx="70.472" cy="68.734" r="2.646" style="fill: #f79e8e"/>
          <path d="M84.518,52.185h.529a6.7,6.7,0,0,1,6.7,6.7v2.2a4.994,4.994,0,0,1-4.994,4.994H82.79a5.135,5.135,0,0,1-5.135-5.135V59.048A6.863,6.863,0,0,1,84.518,52.185Z" style="fill: #fff"/>
          <path d="M84.7,64.042h0a2.388,2.388,0,0,1-2.382-2.381V56.4A2.389,2.389,0,0,1,84.7,54.021h0A2.389,2.389,0,0,1,87.082,56.4v5.259A2.388,2.388,0,0,1,84.7,64.042Z" style="fill: #614319"/>
          <polygon points="98.383 59.259 105.219 52.506 105.13 36.904 98.383 36.111 98.383 59.259" style="fill: #2f2d30"/>
          <polygon points="42.303 59.296 35.467 52.544 35.556 36.942 42.303 36.148 42.303 59.296" style="fill: #2f2d30"/>
          <path d="M35.531,39.51V28.279c0-13.324,10.659-18.186,23.914-18.314-.081,0-.16-.006-.242-.006h.782c-.082,0-.161,0-.242.006a33.5,33.5,0,0,1,6.347.667l.084.018q.682.141,1.35.31c.068.017.136.032.2.05q.606.159,1.2.341c.092.027.185.052.276.082.47.147.934.3,1.39.474.456-.169.921-.326,1.391-.474.091-.029.185-.054.277-.082q.594-.182,1.2-.341l.2-.05q.669-.168,1.35-.31l.084-.018a33.514,33.514,0,0,1,6.347-.667c-.081,0-.161-.006-.241-.006h.78c-.081,0-.16,0-.241.006,13.255.128,23.914,4.99,23.914,18.314V41.854A28.263,28.263,0,0,1,74.8,39.45l-9.916,9.915a3.733,3.733,0,0,1-5.708-.486l-.025-.036A23.969,23.969,0,0,1,29.681,45.36Z" style="fill: #3a383b"/>
          <path d="M46.4,52.369V41.323c0-13.507,10.806-18.437,24.244-18.567-.082,0-.163-.006-.245-.006h.792c-.082,0-.163.005-.244.006,13.438.13,24.244,5.06,24.244,18.567v3.831a28.756,28.756,0,0,1-3.194.182A28.129,28.129,0,0,1,74.738,39.45L61.924,52.264a24.132,24.132,0,0,1-2.835-3.421A23.936,23.936,0,0,1,46.4,52.369Z" style="fill: #464347"/>
        </g>
      </g>
    </g>
  </g>
</svg>
