<svg xmlns="http://www.w3.org/2000/svg" viewBox="0 0 141.032 141.031">
  <title>Fichier 2</title>
  <g id="Calque_2" data-name="Calque 2">
    <g id="board">
      <g>
        <g>
          <path d="M105,85.806c0-.152-.013-.3-.02-.454,0-.129-.01-.257-.017-.386v-.018c-.02-.393-.052-.783-.087-1.173-.015-.179-.033-.358-.052-.536-.041-.388-.087-.775-.142-1.159-.024-.167-.052-.334-.08-.5q-.067-.431-.148-.859c-.034-.178-.066-.356-.1-.533q-.11-.535-.239-1.065c-.043-.183-.088-.366-.135-.547-.093-.358-.189-.714-.294-1.067-.052-.176-.108-.35-.163-.525-.078-.248-.159-.5-.242-.741-.077-.224-.155-.449-.236-.671-.1-.282-.21-.562-.321-.84-.074-.187-.15-.375-.228-.561-.134-.318-.27-.635-.413-.947-.087-.187-.176-.372-.265-.558-.1-.2-.2-.4-.3-.6q-.2-.4-.416-.793c-.113-.206-.227-.414-.344-.62-.109-.19-.221-.382-.335-.571-.139-.231-.281-.461-.426-.689s-.3-.472-.461-.7q-.154-.229-.31-.455-.311-.444-.635-.876c-.106-.143-.212-.283-.319-.423-.148-.191-.3-.381-.45-.568-.11-.136-.224-.269-.336-.4-.243-.289-.489-.573-.741-.852-.1-.109-.2-.216-.3-.324q-.42-.452-.856-.887c-.095-.094-.188-.187-.283-.28-.186-.18-.372-.358-.561-.533-.05-.047-.1-.092-.153-.139-.356-.324-.719-.641-1.089-.948-.094-.078-.189-.155-.284-.232q-.508-.412-1.032-.8c-.093-.069-.185-.139-.278-.206a29.477,29.477,0,0,0-17.376-5.7H67.38a29.478,29.478,0,0,0-17.328,5.663q-.284.2-.562.415c-.172.131-.346.262-.515.4q-.373.294-.736.6-.227.192-.451.388-.308.271-.61.55c-.186.171-.369.345-.55.52s-.346.339-.517.511c-.132.135-.264.269-.395.406-.243.254-.48.515-.713.777-.126.14-.248.283-.371.426-.177.205-.351.415-.522.626-.15.184-.3.369-.444.557q-.253.327-.5.661-.159.215-.316.434-.319.448-.621.906c-.094.143-.185.286-.276.429-.155.243-.306.488-.455.735-.095.157-.189.315-.281.474-.171.3-.335.594-.5.9-.078.145-.156.291-.231.439q-.265.513-.513,1.036c-.061.131-.12.264-.179.4-.13.285-.256.574-.378.863-.053.127-.108.253-.16.38-.149.37-.291.742-.426,1.118-.051.142-.1.285-.151.429-.133.383-.261.771-.381,1.162-.032.108-.062.219-.094.329q-.146.5-.276,1c-.034.13-.068.259-.1.39q-.147.6-.273,1.216c-.027.137-.053.273-.079.411-.075.392-.144.784-.205,1.18-.015.1-.03.209-.045.313-.055.387-.1.777-.144,1.168-.014.134-.029.268-.041.4q-.061.644-.1,1.3c-.007.129-.011.257-.017.387-.007.152-.016.3-.02.457-.009.308-.014.615-.014.923v4.974h5.458V94.1h62.659V86.733Q105.015,86.269,105,85.806Z" style="fill: #3e3727"/>
          <path d="M35.713,44.232H103.64a4.525,4.525,0,0,1,4.525,4.525V75.19a4.525,4.525,0,0,1-4.525,4.525H35.712a4.524,4.524,0,0,1-4.524-4.524V48.757A4.525,4.525,0,0,1,35.713,44.232Z" style="fill: #625d5c"/>
          <path d="M121.809,119c-4.079-6.773-10.5-10.614-20.774-10.966-.459-.026-.92-.041-1.386-.041h-59.6c-.288,0-.573.007-.857.017-.177.006-.353.013-.528.023-6.208.213-11.329,1.322-15.311,3.661a19.975,19.975,0,0,0-5.472,5.729,70.33,70.33,0,0,0,52.635,23.607C91.188,141.031,108.911,133.172,121.809,119Z" style="fill: #cecccc"/>
          <path d="M52.42,107.993H40.049c-.288,0-.573.007-.857.017-.177.006-.353.013-.528.023A38.98,38.98,0,0,0,27.4,109.859v16.436a70.2,70.2,0,0,0,28.333,13.172V107.993H52.42Z" style="fill: #d0ad7d"/>
          <path d="M32.345,108.636c-.569.1-1.123.2-1.667.32l-.149.033q-.819.182-1.6.4l-.1.028q-.8.227-1.571.493a22.071,22.071,0,0,0-3.906,1.785,16.63,16.63,0,0,0-1.493,1.136,18.583,18.583,0,0,0-1.776,1.726l-.08.088c-.117.13-.232.265-.346.4-.05.058-.1.117-.149.177-.1.126-.21.252-.314.383l-.171.221c-.222.285-.44.579-.657.884l.617,1.917a70.815,70.815,0,0,0,15.29,12.382V108.359q-.916.11-1.791.255Z" style="fill: #8b5e29"/>
          <path d="M119.474,121.24l1.459-4.531c-.218-.305-.435-.6-.657-.884-.058-.073-.114-.148-.172-.221-.1-.131-.209-.258-.313-.383q-.073-.09-.148-.177c-.115-.134-.23-.269-.347-.4-.026-.029-.052-.059-.08-.088a18.573,18.573,0,0,0-1.775-1.726,16.708,16.708,0,0,0-1.494-1.136,22.064,22.064,0,0,0-3.906-1.785q-.766-.267-1.571-.493l-.1-.028q-.781-.217-1.6-.4l-.15-.033c-.544-.118-1.1-.225-1.666-.32-.046-.007-.092-.014-.138-.022q-.877-.144-1.791-.255V132A70.708,70.708,0,0,0,119.474,121.24Z" style="fill: #8b5e29"/>
          <path d="M39.192,108.011c-.177.006-.353.013-.528.023A38.98,38.98,0,0,0,27.4,109.859v16.436A70.3,70.3,0,0,0,48.15,137.389v-29.4h-8.1C39.762,107.993,39.476,108,39.192,108.011Z" style="fill: #e6be89"/>
          <path d="M100.5,108.011c-.284-.011-.569-.017-.857-.017H83.96v31.742a70.157,70.157,0,0,0,28.332-12.418V109.859a38.979,38.979,0,0,0-11.264-1.825C100.852,108.023,100.676,108.017,100.5,108.011Z" style="fill: #d0ad7d"/>
          <path d="M100.5,108.011c-.284-.011-.569-.017-.857-.017h-8.5v29.966a70.283,70.283,0,0,0,21.15-10.642V109.859a38.979,38.979,0,0,0-11.264-1.825C100.852,108.023,100.676,108.017,100.5,108.011Z" style="fill: #e6be89"/>
          <circle cx="48.731" cy="58.795" r="14.24" style="fill: #8ca238"/>
          <circle cx="90.781" cy="58.832" r="14.24" style="fill: #8ca238"/>
          <path d="M52.448,107.993" style="fill: #516b85"/>
          <path d="M72.493,86.422H66.8c-6.221,0-18.1,5.089-18.1,11.311v10.476l12.659,8.507a15.044,15.044,0,0,0,16.7.054l12.921-8.561V97.733C90.989,91.512,78.716,86.422,72.493,86.422Z" style="fill: #bcbbbb"/>
          <path d="M55.781,100.367a31.591,31.591,0,0,0,14.141,3.078,31.661,31.661,0,0,0,14.066-3.04V89.836H55.781Z" style="fill: #8fa439"/>
          <path d="M70.133,16.458c.094,0,.188-.007.283-.007H69.5c.1,0,.189.006.284.007-15.525.15-28.009,5.845-28.009,21.451V77.957c0,15.6,12.484,21.3,28.009,21.45-.095,0-.188.007-.284.007h.916c-.1,0-.189-.006-.283-.007,15.525-.15,28.009-5.845,28.009-21.45V37.909C98.142,22.3,85.658,16.608,70.133,16.458Z" style="fill: #9cb341"/>
          <path d="M69.815,22.386c.082,0,.164-.007.246-.007h-.794c.081,0,.162.006.246.007C56,22.516,45.137,27.472,45.137,41.053V75.7c0,13.581,10.863,18.538,24.376,18.668-.084,0-.165.006-.246.006h.794c-.082,0-.164-.005-.246-.006C83.325,94.234,94.19,89.278,94.19,75.7V41.053C94.19,27.472,83.325,22.516,69.815,22.386Z" style="fill: #b6c64f"/>
          <path d="M51.361,55.384a12.4,12.4,0,0,0-3.231,7.693v5.034a12.591,12.591,0,0,0,3.2,7.724l.925.925c1.76,1.759,3.2,1.163,3.2-1.325V55.894c0-2.488-1.453-3.1-3.229-1.356Z" style="fill: #808634"/>
          <path d="M88.139,55.384a12.406,12.406,0,0,1,3.23,7.693v5.034a12.6,12.6,0,0,1-3.2,7.724l-.926.925c-1.76,1.759-3.2,1.163-3.2-1.325V55.894c0-2.488,1.454-3.1,3.23-1.356Z" style="fill: #808634"/>
          <path d="M76.89,77.676H62.683a1.047,1.047,0,1,0,0,2.095H76.89a1.047,1.047,0,1,0,0-2.095Z" style="fill: #8e8f3c"/>
          <path d="M74.847,69.543c0,2.016-2.189,3.651-4.889,3.651s-4.889-1.635-4.889-3.651,2.189-10.834,4.889-10.834S74.847,67.526,74.847,69.543Z" style="fill: #9e9e44"/>
          <circle cx="69.985" cy="68.612" r="2.66" style="fill: #b2b041"/>
          <path d="M79.491,89.829a12.594,12.594,0,0,0-7.725-3.2H67.284a12.589,12.589,0,0,0-7.724,3.2l-3.219,3.219c-1.759,1.76-1.248,3.781,1.137,4.493a50.918,50.918,0,0,0,12.3,1.866h-.095c-.1,0,.018.006.269.006s.373,0,.27-.006h-.094A50.826,50.826,0,0,0,81.818,97.74c2.395-.675,2.915-2.667,1.155-4.427Z" style="fill: #747a2f"/>
          <path d="M79.491,89.829a12.594,12.594,0,0,0-7.725-3.2H67.284a12.589,12.589,0,0,0-7.724,3.2l-2.58,2.581a38.718,38.718,0,0,0,12.531,1.955c-.084,0-.165.006-.246.006h.794c-.082,0-.164-.005-.246-.006A39,39,0,0,0,82.14,92.48Z" style="fill: #808634"/>
          <g>
            <path d="M98.341,28.294q.336.433.659.877Q98.678,28.728,98.341,28.294Z" style="fill: #afaeae"/>
            <path d="M97.541,27.3q.237.281.466.568Q97.778,27.585,97.541,27.3Z" style="fill: #afaeae"/>
            <path d="M100.245,31.02c.118.188.233.379.347.571C100.478,31.4,100.363,31.208,100.245,31.02Z" style="fill: #afaeae"/>
            <path d="M99.323,29.625c.162.233.323.468.479.705C99.646,30.093,99.485,29.858,99.323,29.625Z" style="fill: #afaeae"/>
            <path d="M96.422,26.049c.262.279.518.564.771.852C96.94,26.613,96.684,26.328,96.422,26.049Z" style="fill: #afaeae"/>
            <path d="M94.347,24.025c.2.175.391.353.583.533C94.738,24.378,94.544,24.2,94.347,24.025Z" style="fill: #afaeae"/>
            <path d="M93.056,22.938c.385.307.762.625,1.132.949C93.818,23.563,93.441,23.245,93.056,22.938Z" style="fill: #afaeae"/>
            <path d="M100.95,32.211c.148.262.291.526.433.792C101.241,32.737,101.1,32.473,100.95,32.211Z" style="fill: #afaeae"/>
            <path d="M96.114,25.726q-.437-.453-.891-.888Q95.678,25.273,96.114,25.726Z" style="fill: #afaeae"/>
            <path d="M104.586,42.52c.028.167.057.333.082.5C104.644,42.852,104.614,42.687,104.586,42.52Z" style="fill: #afaeae"/>
            <path d="M104.817,44.179c.02.179.038.358.055.537C104.855,44.537,104.837,44.358,104.817,44.179Z" style="fill: #afaeae"/>
            <path d="M91.689,21.9q.545.39,1.072.8Q92.233,22.294,91.689,21.9Z" style="fill: #afaeae"/>
            <path d="M104.98,46.292c-.005-.128-.01-.258-.017-.386v.013C104.971,46.043,104.974,46.168,104.98,46.292Z" style="fill: #afaeae"/>
            <path d="M102.967,36.511c.084.223.165.446.245.671C103.132,36.958,103.051,36.734,102.967,36.511Z" style="fill: #afaeae"/>
            <path d="M102.4,35.11c.082.186.16.373.237.561C102.556,35.483,102.478,35.3,102.4,35.11Z" style="fill: #afaeae"/>
            <path d="M104.327,41.127c.038.177.071.355.106.533C104.4,41.482,104.364,41.3,104.327,41.127Z" style="fill: #afaeae"/>
            <path d="M101.691,33.606c.093.185.186.37.275.558C101.877,33.976,101.784,33.791,101.691,33.606Z" style="fill: #afaeae"/>
            <path d="M103.938,39.516q.073.273.142.548Q104.011,39.789,103.938,39.516Z" style="fill: #afaeae"/>
            <path d="M103.464,37.924c.057.175.116.349.169.525C103.58,38.273,103.521,38.1,103.464,37.924Z" style="fill: #afaeae"/>
            <path d="M36.091,37.034c.051-.143.1-.286.157-.428C36.194,36.749,36.142,36.892,36.091,37.034Z" style="fill: #afaeae"/>
            <path d="M35.6,38.525c.033-.109.063-.22.1-.329C35.661,38.3,35.63,38.416,35.6,38.525Z" style="fill: #afaeae"/>
            <path d="M43.81,25.046c-.138.135-.276.268-.411.405C43.534,25.315,43.672,25.181,43.81,25.046Z" style="fill: #afaeae"/>
            <path d="M36.69,35.489c.054-.128.111-.253.166-.38C36.8,35.235,36.744,35.361,36.69,35.489Z" style="fill: #afaeae"/>
            <path d="M34.581,43.039c.015-.1.03-.209.047-.313C34.611,42.831,34.6,42.935,34.581,43.039Z" style="fill: #afaeae"/>
            <path d="M34.388,44.609c.013-.134.028-.268.043-.4C34.417,44.341,34.4,44.475,34.388,44.609Z" style="fill: #afaeae"/>
            <path d="M34.272,46.292c.005-.129.01-.259.017-.387C34.282,46.033,34.277,46.163,34.272,46.292Z" style="fill: #afaeae"/>
            <path d="M34.84,41.546c.027-.138.054-.274.083-.411C34.895,41.272,34.867,41.408,34.84,41.546Z" style="fill: #afaeae"/>
            <path d="M37.248,34.244c.063-.131.123-.264.187-.394C37.372,33.981,37.311,34.113,37.248,34.244Z" style="fill: #afaeae"/>
            <path d="M35.206,39.919c.033-.13.069-.26.1-.391C35.275,39.659,35.239,39.789,35.206,39.919Z" style="fill: #afaeae"/>
            <path d="M45.552,23.464q.232-.2.469-.388C45.863,23.2,45.708,23.333,45.552,23.464Z" style="fill: #afaeae"/>
            <path d="M44.346,24.535q.283-.264.571-.521Q44.628,24.271,44.346,24.535Z" style="fill: #afaeae"/>
            <path d="M46.785,22.475c.176-.134.355-.266.535-.4C47.14,22.209,46.961,22.34,46.785,22.475Z" style="fill: #afaeae"/>
            <path d="M42.273,26.655c.127-.143.255-.286.385-.426C42.528,26.369,42.4,26.512,42.273,26.655Z" style="fill: #afaeae"/>
            <path d="M37.968,32.814c.079-.148.159-.294.24-.44C38.128,32.52,38.047,32.666,37.968,32.814Z" style="fill: #afaeae"/>
            <path d="M39.489,30.269c.095-.143.189-.288.287-.429C39.678,29.981,39.584,30.125,39.489,30.269Z" style="fill: #afaeae"/>
            <path d="M41.269,27.839q.228-.281.461-.558Q41.5,27.557,41.269,27.839Z" style="fill: #afaeae"/>
            <path d="M38.725,31.479c.1-.16.194-.318.291-.475C38.919,31.161,38.82,31.318,38.725,31.479Z" style="fill: #afaeae"/>
            <path d="M40.42,28.934c.108-.145.219-.29.329-.435C40.639,28.644,40.529,28.789,40.42,28.934Z" style="fill: #afaeae"/>
          </g>
          <rect x="34.236" y="51.051" width="11.063" height="43.05" style="fill: #473f2e"/>
          <path d="M34.267,86.788,30.5,90.552a2.079,2.079,0,0,0,1.47,3.549h9.336Z" style="fill: #554b39"/>
          <rect x="93.953" y="51.051" width="11.062" height="43.05" style="fill: #473f2e"/>
          <path d="M105,46.747c0-.152-.013-.3-.02-.455-.005-.128-.01-.258-.017-.386v-.018c-.022-.392-.054-.782-.091-1.171-.017-.179-.035-.358-.055-.537-.043-.389-.091-.775-.148-1.159-.025-.168-.054-.333-.082-.5-.047-.288-.1-.573-.154-.859-.035-.178-.068-.356-.106-.533-.076-.357-.16-.712-.247-1.064q-.069-.275-.142-.548c-.1-.358-.2-.714-.3-1.067-.054-.176-.112-.35-.169-.525-.081-.248-.165-.5-.252-.742-.079-.225-.16-.448-.245-.671q-.161-.423-.334-.84c-.077-.188-.156-.375-.237-.561-.138-.318-.281-.634-.43-.947-.089-.187-.183-.372-.275-.558q-.151-.3-.309-.6c-.141-.267-.285-.53-.433-.792-.117-.208-.236-.415-.358-.621s-.229-.382-.347-.571q-.217-.348-.442-.689c-.156-.237-.317-.472-.479-.705-.106-.152-.215-.3-.324-.454q-.321-.444-.659-.877c-.11-.141-.22-.283-.334-.422q-.229-.286-.466-.568c-.115-.136-.232-.269-.349-.4-.252-.288-.508-.573-.771-.852-.1-.108-.2-.216-.308-.323q-.437-.453-.891-.888c-.1-.093-.195-.187-.294-.28-.192-.179-.386-.357-.583-.533-.052-.046-.106-.092-.159-.138-.37-.324-.747-.642-1.132-.949-.1-.078-.2-.155-.295-.232q-.527-.412-1.072-.8c-.1-.069-.193-.139-.29-.207A31.437,31.437,0,0,0,73.343,16H65.909a31.438,31.438,0,0,0-18,5.662c-.2.137-.391.275-.584.416s-.359.261-.535.4q-.388.3-.764.6c-.158.127-.313.257-.469.388-.214.181-.425.365-.634.551q-.289.256-.571.521t-.536.511c-.138.135-.276.268-.411.405-.252.254-.5.515-.741.777-.13.14-.258.283-.385.426q-.275.31-.542.626-.234.276-.461.558c-.175.218-.35.438-.52.661-.11.144-.22.289-.329.435q-.33.448-.645.906c-.1.142-.192.285-.287.429q-.241.364-.472.734c-.1.157-.2.315-.291.475q-.266.442-.517.9c-.081.146-.162.292-.24.44q-.276.513-.534,1.036c-.063.131-.124.263-.187.394q-.2.429-.392.864c-.056.127-.112.252-.166.38-.155.368-.3.742-.442,1.118-.054.142-.106.285-.157.428-.139.385-.271.771-.4,1.162-.034.108-.065.219-.1.329q-.152.5-.287,1c-.035.131-.071.26-.1.391-.1.4-.2.808-.283,1.216-.028.137-.056.273-.083.411-.078.391-.149.784-.212,1.18-.017.1-.032.209-.047.313-.058.388-.107.777-.15,1.169-.015.133-.03.267-.043.4q-.063.645-.1,1.3c-.007.128-.012.258-.017.387-.007.153-.016.3-.021.458q-.014.461-.015.924v4.974H48.38v-1.2H90.728v3.592h14.287V47.673Q105.015,47.208,105,46.747Z" style="fill: #473f2e"/>
          <path d="M89.335,44.137H49.823c-2.488,0-4.525,1.645-4.525,3.656s2.037,3.656,4.525,3.656H89.335c2.488,0,4.525-1.645,4.525-3.656S91.823,44.137,89.335,44.137Z" style="fill: #645844"/>
          <path d="M104.89,86.788l3.765,3.764a2.079,2.079,0,0,1-1.469,3.549H97.85Z" style="fill: #554b39"/>
          <polygon points="42.145 50.771 96.815 50.771 98.011 56.756 96.416 64.738 77.66 65.934 70.078 61.545 64.092 65.934 42.145 66.334 40.948 55.959 42.145 50.771" style="fill: #3a3323"/>
          <path d="M79.6,68.783c-2.515,0-4.036-.276-5.088-.924a15.809,15.809,0,0,1-2.965-2.609l-.028-.029-.869-.927a1.7,1.7,0,0,0-1-.33,1.176,1.176,0,0,0-.96.36L67.6,65.47a15.685,15.685,0,0,1-2.75,2.389c-1.051.648-2.572.924-5.087.924-.9,0-1.671-.039-1.946-.055H45.936a7.791,7.791,0,0,1-7.782-7.782V56.158a7.791,7.791,0,0,1,7.782-7.781H93.422a7.79,7.79,0,0,1,7.781,7.781v4.788a7.79,7.79,0,0,1-7.781,7.782H81.542C81.267,68.744,80.5,68.783,79.6,68.783ZM77.51,62.662A11.333,11.333,0,0,0,79.6,62.8c.9,0,1.651-.048,1.658-.049l.2-.006H93.422a1.8,1.8,0,0,0,1.8-1.8V56.158a1.8,1.8,0,0,0-1.8-1.8H45.936a1.8,1.8,0,0,0-1.8,1.8v4.788a1.8,1.8,0,0,0,1.8,1.8l12.169.006c.006,0,.754.049,1.657.049a11.307,11.307,0,0,0,2.087-.136A15.914,15.914,0,0,0,63.3,61.3l1.157-1.219a7.163,7.163,0,0,1,5.182-2.1A7.723,7.723,0,0,1,74.606,59.8l.134.113,1.126,1.2A16.994,16.994,0,0,0,77.51,62.662Z" style="fill: #625d5c"/>
          <g>
            <path d="M47.9,21.662c.156-.108.317-.212.476-.318v-.01C48.22,21.441,48.062,21.552,47.9,21.662Z" style="fill: #afaeae"/>
            <path d="M90.728,21.241v.007c.225.148.45.3.671.45C91.177,21.544,90.954,21.39,90.728,21.241Z" style="fill: #afaeae"/>
            <path d="M52.9,44.137H86.2a4.538,4.538,0,0,0,4.525-4.524V21.248a31.813,31.813,0,0,0-4.194-2.342.244.244,0,0,1-.143-.011.424.424,0,0,1-.147-.125Q85.2,18.3,84.11,17.9V32.792a4.538,4.538,0,0,1-4.525,4.524H60.068a4.538,4.538,0,0,1-4.524-4.524V17.761q-1.173.411-2.3.908a.528.528,0,0,1-.173.144.323.323,0,0,1-.181.014,31.8,31.8,0,0,0-4.506,2.517V39.613A4.537,4.537,0,0,0,52.9,44.137Z" style="fill: #554b39"/>
          </g>
        </g>
      </g>
    </g>
  </g>
</svg>
